<?xml version="1.0" encoding="UTF-8" standalone="no"?>
<!-- Created with Inkscape (http://www.inkscape.org/) -->

<svg
   width="39.6875mm"
   height="6.6651106mm"
   viewBox="0 0 39.6875 6.6651106"
   version="1.1"
   id="svg5"
   inkscape:version="1.1.1 (c3084ef, 2021-09-22)"
   sodipodi:docname="logo-color.svg"
   xmlns:inkscape="http://www.inkscape.org/namespaces/inkscape"
   xmlns:sodipodi="http://sodipodi.sourceforge.net/DTD/sodipodi-0.dtd"
   xmlns="http://www.w3.org/2000/svg"
   xmlns:svg="http://www.w3.org/2000/svg">
  <sodipodi:namedview
     id="namedview7"
     pagecolor="#ffffff"
     bordercolor="#666666"
     borderopacity="1.0"
     inkscape:pageshadow="2"
     inkscape:pageopacity="0.0"
     inkscape:pagecheckerboard="0"
     inkscape:document-units="mm"
     showgrid="false"
     fit-margin-top="0"
     fit-margin-left="0"
     fit-margin-right="0"
     fit-margin-bottom="0"
     inkscape:zoom="0.16133757"
     inkscape:cx="-542.34112"
     inkscape:cy="142.55824"
     inkscape:window-width="1312"
     inkscape:window-height="792"
     inkscape:window-x="0"
     inkscape:window-y="25"
     inkscape:window-maximized="0"
     inkscape:current-layer="layer1" />
  <defs
     id="defs2">
	
	
	
	
	
	
	
	
	
	
	
	
	
	
	
</defs>
  <g
     inkscape:label="Layer 1"
     inkscape:groupmode="layer"
     id="layer1"
     transform="translate(204.29089,-393.63533)">
    <g
       id="g5769"
       transform="matrix(0.11212825,0,0,0.11212825,-181.38411,349.4978)">
      <path
         id="path826"
         style="fill:#01548b;fill-opacity:1;stroke-width:0.411878"
         class="st0"
         d="m -83.095703,1487.7559 c -1.223271,0 -2.115546,1.3961 -2.601563,4.0156 l -15.195314,100.1855 c -0.7908,5.202 -2.03072,11.2272 -6.31836,12.1621 -2.29415,0.4284 -3.40563,0.4278 -4.6289,0.4278 -1.54042,0 -2.4375,0.3224 -2.4375,1.0761 0,1.3675 1.21913,1.6875 2.76367,1.6875 4.9178,0 12.269925,-0.4648 15.214842,-0.4648 2.796642,0 9.686265,0.4648 16.107422,0.4648 2.33534,0 3.699218,-0.3241 3.699218,-1.6875 10e-7,-0.7537 -1.075514,-1.0761 -2.261718,-1.0761 -1.561013,0 -3.732365,-0.1443 -6.458985,-0.7539 -2.619533,-0.6096 -4.648437,-2.0084 -4.648437,-4.9492 0,-2.4425 0.163115,-4.4492 0.484375,-7.2129 l 8.003906,-61.1387 h 0.572266 c 5.379107,11.5161 14.638639,30.8529 16.001953,34.082 1.865801,4.3412 13.99488,27.8443 17.652344,34.9121 2.495973,4.6336 4.019542,7.6817 5.419922,7.6817 1.363309,0 2.150585,-1.3643 5.705078,-8.5762 l 33.4765621,-69.8203 h 0.609375 l 9.21875,67.6289 c 0.609577,4.3041 0.1448344,6.3151 -0.7695312,6.6035 -1.0914728,0.4654 -1.7011719,0.9298 -1.7011719,1.6836 0,0.9349 0.9339593,1.4011 4.4472656,1.6895 3.0999384,0.2357 9.9833324,0.4692 16.5585934,0.6445 0.416641,0.2057 1.035989,0.2851 1.88086,0.2851 2.082971,0 4.165411,-0.042 6.125,-0.1 3.051387,0.062 5.572538,0.1035 6.634765,0.1035 1.179958,0 2.247276,-0.1442 2.986328,-0.4667 4.296806,0.01 10.541155,0.4628 14.927735,0.4628 1.400379,0 2.169922,-0.3254 2.169922,-1.4004 0,-0.7537 -0.305658,-1.3632 -1.990235,-1.3632 h -2.009765 c -4.164072,0 -5.382813,-1.3621 -5.382813,-3.6563 0,-1.5816 0.609343,-4.8119 1.972656,-8.041 l 7.25,-17.5078 c 0.325384,-0.7539 0.464805,-0.8984 1.222657,-0.8984 v 0 h 31.808593 c 0.646647,0 1.096709,0.1406 1.417969,0.8984 l 10.441409,26.2988 c 0.62605,1.5446 -0.28991,2.7623 -1.25782,2.9063 -1.36332,0.1441 -1.66796,0.6095 -1.66796,1.3633 0,0.9309 1.52551,0.9321 4.02148,1.0761 11.35132,0.3254 21.1658,0.3242 25.93945,0.3242 1.94289,0 3.24872,-0.047 4.125,-0.166 0.38108,0.099 0.84277,0.1543 1.39844,0.1543 2.80076,0 6.1537,-0.145 9.38281,-0.3222 3.22911,0 6.15184,-0.1426 7.67578,-0.1426 3.37327,0 8.29086,0.3256 13.70704,0.791 5.34615,0.3254 11.19543,0.7539 16.07617,0.7539 24.935,0 39.21571,-9.2226 45.36914,-15.3926 7.69385,-7.5003 14.76172,-19.9511 14.76172,-36.4179 0,-15.4989 -5.99395,-26.4059 -12.77344,-33.1524 -14.7287,-14.9264 -37.49329,-14.9258 -54.39258,-14.9258 -8.16339,0 -17.81661,0.2871 -21.97656,0.2871 -3.85516,0 -12.45088,-0.2871 -19.53516,-0.2871 -1.97288,0 -3.06836,0.2838 -3.06836,1.2188 0,0.935 0.9542,1.4004 2.33399,1.4004 1.99348,0 4.28828,0.1436 5.36328,0.4648 4.30411,1.2192 5.5264,2.6201 5.84766,7.0684 0.12355,4.127 0.125,7.8259 0.125,27.666 h -0.004 v 23.0605 c 0,11.9856 -8.6e-4,22.2461 -0.58984,27.7735 -0.43247,3.8387 -1.21873,6.3143 -3.98243,6.9609 -1.25622,0.2885 -2.76369,0.4317 -4.76953,0.4317 -0.22504,0 -0.42598,0.015 -0.60937,0.041 -0.14456,-0.017 -0.29921,-0.029 -0.4668,-0.029 -1.52394,0 -3.08379,-0.1433 -5.09375,-0.4317 -2.42183,-0.4654 -6.28238,-2.1917 -11.48437,-13.9961 -8.64529,-19.8401 -31.210386,-73.3019 -34.476567,-80.5468 -1.346835,-2.9079 -1.937349,-4.1641 -3.984375,-4.1641 -1.363309,0 -2.4409,1.5457 -3.964844,5.2402 l -35.339843,82.1973 c -2.217537,5.2958 -4.128015,8.8974 -7.923829,10.6133 -0.502543,-0.1354 -1.023935,-0.2843 -1.566406,-0.4551 -4.608897,-1.3633 -6.148195,-5.8456 -7.515625,-15.5 l -14.011719,-95.0078 c -0.428351,-3.2291 -1.3635037,-4.7363 -2.7597651,-4.7363 -1.3674297,0 -2.1538926,1.2199 -3.3730469,3.6953 l -41.765625,87.7578 -41.978516,-86.7207 c -1.977006,-3.9828 -2.907838,-4.7363 -4.164062,-4.7363 z m -622.406247,1.207 c -22.93327,0 -37.55052,6.1376 -48.60938,16.3027 -14.7699,13.5178 -18.01172,31.7009 -18.01172,42.1543 0,14.9264 4.00646,32.1512 19.06055,45.3848 14.02851,12.1421 31.69013,16.779 52.76172,16.7715 9.87681,0 21.54272,-1.0861 27.67969,-3.545 2.65247,-1.0873 3.25736,-1.8545 4.02343,-4.4453 1.56926,-5.239 3.38868,-18.6285 3.38868,-20.4531 0,-1.2439 -0.31974,-2.332 -1.39063,-2.332 -1.26032,0 -1.54911,0.6094 -1.99805,3.0683 -0.58896,2.7802 -2.58776,7.258 -5.24023,10.1329 -6.14933,7.0966 -14.44463,8.6621 -28.12305,8.6621 -20.61441,0 -48.46484,-18.1817 -48.46484,-54.7481 0,-14.9593 2.92436,-29.5631 14.15625,-39.8848 6.75889,-6.1369 15.5324,-9.4941 28.91015,-9.4941 14.15619,0 26.14206,4.1233 31.22461,9.4941 3.83456,3.9912 5.84882,9.395 5.97657,14.1563 0,2.1418 0.33705,3.3887 1.56445,3.3887 1.37567,0 1.68022,-1.2425 1.82422,-3.545 0.31699,-3.0684 0.17288,-11.5382 0.49414,-16.5878 0.27186,-5.4039 0.75,-7.2557 0.75,-8.4707 0,-0.9267 -0.6063,-1.7258 -2.33203,-1.8536 -4.58419,-0.4818 -9.52247,-1.8201 -15.3711,-2.6191 -7.05959,-0.8979 -12.76732,-1.5371 -22.27343,-1.5371 z m 375.33789,16.459 c -1.37155,0 -2.44137,1.5353 -3.99414,5.2422 l -35.38086,82.2968 c -2.78017,6.6148 -5.07812,10.6104 -11.24805,11.5371 -1.19853,0 -2.75197,0.127 -3.96289,0.127 -1.12029,0 -1.55273,0.6401 -1.55273,1.4062 0,1.0545 0.77093,1.375 2.44726,1.375 7.09662,1e-4 14.31769,-0.4453 15.69336,-0.4453 4.31646,0 10.64179,0.4453 15.08594,0.4453 1.37566,0 2.14258,-0.3205 2.14258,-1.375 0,-0.7661 -0.30197,-1.4062 -1.98243,-1.4062 h -2.01367 c -4.1723,0 -5.37109,-1.3715 -5.37109,-3.6738 0,-1.5363 0.60675,-4.7611 1.98242,-7.9903 l 7.21875,-17.5449 c 0.30479,-0.7661 0.48196,-0.9277 1.24805,-0.9277 h 31.83008 c 0.62193,0 1.05529,0.1616 1.42187,0.9277 l 10.41992,26.3028 c 0.62194,1.5363 -0.3057,2.7843 -1.23242,2.9121 -1.37155,0.1894 -1.69141,0.6381 -1.69141,1.4043 0,0.9266 1.54785,0.9249 4.02735,1.0527 11.35955,0.3213 21.22503,0.3223 25.98633,0.3223 1.90595,0 3.20418,-0.047 4.08398,-0.1602 0.38476,0.1039 0.85591,0.1602 1.42578,0.1602 2.79664,0 6.15392,-0.1887 9.37891,-0.3164 3.26206,-1e-4 6.16899,-0.129 7.70117,-0.129 3.38974,0 8.31294,0.2549 13.67969,0.7657 5.40382,0.2883 11.2519,0.7675 16.17383,0.7675 24.93088,0 39.23133,-9.2343 45.38476,-15.4042 7.68562,-7.5085 14.76563,-19.977 14.76563,-36.4356 0,-15.5319 -5.99243,-26.4629 -12.76368,-33.2383 -14.78636,-14.9264 -37.54215,-14.9258 -54.47851,-14.9258 -8.11809,0 -17.83937,0.3204 -21.97461,0.3204 -3.85105,0 -12.44634,-0.3204 -19.54297,-0.3204 -1.98113,0 -3.06836,0.3214 -3.06836,1.2481 0,0.9267 0.92707,1.3711 2.30274,1.3711 1.9976,0 4.31108,0.1572 5.39843,0.4785 4.28352,1.2192 5.51599,2.6227 5.84961,7.0957 0.14415,4.1229 0.14453,7.7962 0.14453,27.6445 h -0.01 v 23.0742 c 0,11.9898 8.4e-4,22.3437 -0.6211,27.8711 -0.47777,3.8346 -1.21592,6.2989 -3.99609,6.9043 -1.24386,0.3212 -2.77995,0.4493 -4.77344,0.4493 -0.21341,0 -0.4049,0.013 -0.58008,0.037 -0.15589,-0.022 -0.32002,-0.037 -0.50195,-0.037 -1.51982,0 -3.05258,-0.128 -5.09961,-0.4493 -2.42595,-0.4818 -6.26484,-2.142 -11.5039,-14 -8.62882,-19.8483 -31.22402,-73.3811 -34.45313,-80.6054 -1.37567,-2.9079 -1.98202,-4.1543 -3.99609,-4.1543 z m 781.02148,0.5957 c -1.25624,0 -2.06398,1.4015 -3.625,5.2031 l -33.70703,84.1016 8.74023,3.5859 9.39844,-24.7207 c 0.25127,-0.7907 0.50205,-1.041 1.18164,-1.041 h 28.91797 c 0.64256,0 1.0378,0.2559 1.32617,0.9355 l 10.3711,27.5157 c 0.67959,1.5816 -0.23406,2.731 -1.14844,2.9824 -1.30976,0.1071 -1.82812,0.3966 -1.82812,1.1504 -10e-6,0.9351 1.57673,0.9341 3.9121,1.0781 10.40399,0.2472 19.87657,0.248 24.50196,0.248 4.84365,0 6.00976,-0.247 6.00976,-1.3261 0,-0.8648 -0.66302,-1.043 -1.70508,-1.043 -1.50746,0 -3.47612,-0.1066 -5.45312,-0.502 -2.72663,-0.6466 -6.45939,-2.4765 -11.41016,-14.1738 -8.28695,-19.7371 -29.09365,-72.6921 -32.19922,-79.834 -1.32623,-3.0108 -2.09699,-4.1601 -3.2832,-4.1601 z m 91.07422,0.6484 c -18.74861,0 -34.11914,10.2952 -34.11914,26.2637 0,11.5531 5.21733,20.2728 21.21875,29.6719 l 7.82227,4.6308 c 11.98563,7.0679 13.38476,12.7018 13.38476,18.4063 0,9.2219 -7.08282,16.6113 -18.72656,16.6113 -8.46818,0 -18.62144,-3.2307 -21.5293,-12.918 -0.79079,-2.2983 -1.25586,-5.0615 -1.25586,-6.7461 0,-0.9308 -0.10704,-2.1875 -1.32617,-2.1875 -1.11209,0 -1.72266,1.3963 -1.72266,3.4063 -0.14003,2.15 -0.76953,10.2932 -0.76953,17.3281 0,2.9779 0.44941,3.5514 2.60352,4.4863 5.84863,2.6196 14.15544,3.4063 21.96875,3.4063 7.23254,0 16.12884,-0.7865 22.60351,-5.3789 9.8521,-6.9607 13.54688,-14.7833 13.54688,-24.4336 0,-11.8415 -5.56442,-21.8502 -23.39453,-31.6817 l -5.52735,-3.0468 c -12.14623,-6.7795 -14.27929,-11.3721 -14.27929,-17.2207 0,-8.9337 8.73563,-13.9922 18.43945,-13.9922 8.75649,0 13.06032,3.6945 15.07031,6.1699 2.90782,3.3362 3.4961,7.32 3.4961,8.5762 0,1.5445 0.47041,2.2969 1.42187,2.2969 1.07498,0 1.64844,-1.4004 1.64844,-4.1641 0,-10.264 0.48437,-13.921 0.48437,-15.6797 0,-0.8979 -0.62544,-1.4011 -1.82812,-1.6895 -3.55038,-0.8979 -10.49454,-2.1152 -19.23047,-2.1152 z m -232.9375,0.7481 c -0.60958,0 -1.36345,0.4673 -2.11719,0.6113 -1.07911,0.1812 -3.22775,0.645 -5.70312,0.7519 -2.58659,0.1815 -32.5804,0 -36.85156,0 -3.87164,0 -12.48299,-0.2871 -19.55079,-0.2871 -2.00995,0 -3.05273,0.2838 -3.05273,1.2188 0,0.935 0.91904,1.4004 2.29883,1.4004 2.00995,0 4.30365,0.1436 5.3457,0.4648 4.30411,1.2192 5.52426,2.6201 5.88672,7.0684 0.17711,4.127 0.17578,7.8259 0.17578,27.666 h -0.008 v 23.0644 c 0,11.9856 1.6e-4,22.2461 -0.64649,27.7735 -0.46953,3.8387 -1.21877,6.3143 -4.01953,6.9609 -1.21915,0.2885 -2.74696,0.4317 -4.73633,0.4317 -1.68869,0 -2.17187,0.7907 -2.17187,1.3632 0,0.935 0.91482,1.4004 2.60352,1.4004 2.78016,0 6.1537,-0.143 9.38281,-0.3203 3.21263,0 6.15685,-0.1445 7.69726,-0.1445 3.98285,0 9.04216,0.143 15.64454,0.3203 6.63945,0.2844 14.76521,0.4668 24.91796,0.4668 5.07844,0 6.29658,2e-4 7.21094,-3.373 0.8114,-2.6196 1.84961,-11.5531 1.84961,-14.461 0,-1.3963 -0.14464,-3.0859 -1.24023,-3.0859 -0.8773,0 -1.21866,0.6464 -1.52344,2.0097 -0.91437,5.3833 -2.47435,8.143 -5.81055,9.6875 -3.55038,1.5447 -9.25601,1.6524 -12.77344,1.6524 -13.8514,0 -17.94049,-1.9785 -18.29882,-10.875 -0.14415,-3.8387 0,-14.8877 0,-19.3731 v -10.4414 c 0,-0.7867 0.16084,-1.4004 0.79101,-1.4004 3.3362,0 18.72775,0.3249 21.20313,0.6133 5.04137,0.4655 6.74541,2.4762 7.51562,5.0957 0.30479,1.6846 0.30507,3.3692 0.44922,4.7696 0,0.6137 0.32086,1.0781 1.21875,1.0781 1.25212,0 1.38086,-1.8662 1.38086,-2.9453 0,-0.9309 0.3096,-6.1325 0.63086,-8.752 0.78669,-6.6024 1.08984,-8.7521 1.08984,-9.5058 0,-0.7908 -0.48026,-1.4004 -1.08984,-1.4004 -0.62605,0 -1.07514,0.7916 -2.11719,1.6894 -1.2521,1.4004 -3.26197,1.6843 -6.47461,1.9727 -3.06847,0.3212 -20.61422,0.3203 -23.66211,0.3203 -0.77433,0 -0.93554,-0.6096 -0.93554,-1.3633 v -32.291 c 0,-0.7579 0.35892,-1.2227 0.93554,-1.2227 2.7637,0 18.89229,0.2882 21.20703,0.6094 6.76302,0.6137 7.82153,2.4422 8.9336,4.7734 0.72078,1.5075 0.89648,3.8014 0.89648,4.7364 0,1.1162 0.14533,1.6894 1.07617,1.6894 1.07912,0 1.36782,-1.5076 1.54493,-2.1172 0.28831,-1.5404 0.60975,-7.2129 0.7539,-8.6132 0.32127,-5.9929 1.11133,-7.5318 1.11133,-8.4297 0,-0.6467 -0.17794,-1.2578 -0.96875,-1.2578 z m -959.11523,1.08 c -2.17471,0 -3.22852,0.3219 -3.22852,1.0879 0,1.2438 0.76495,1.5313 2.14063,1.5313 1.66397,0 3.37321,0.1606 4.92187,0.6055 2.94081,0.9308 4.28421,2.4957 4.60547,6.9687 0.17726,4.1229 0.17773,7.7962 0.17773,27.6445 h -0.006 v 23.0703 c 0,12.6282 5.9e-4,23.0764 -0.65429,28.4473 -0.42837,3.8675 -1.18271,5.7227 -3.96289,6.3281 -1.24797,0.3212 -2.7457,0.4473 -4.75977,0.4473 -1.69693,0 -2.17578,0.8008 -2.17578,1.4062 0,0.9309 0.89422,1.375 2.60352,1.375 5.38321,1e-4 14.62121,-0.4453 17.72265,-0.4453 3.67393,0 12.8967,0.4453 21.82617,0.4453 1.53631,0 2.62305,-0.4482 2.62305,-1.375 0,-0.6054 -0.63774,-1.4062 -2.16992,-1.4062 -2.01819,0 -5.05476,-0.126 -6.9082,-0.4473 -4.02403,-0.6054 -4.94951,-2.5868 -5.39844,-6.166 -0.60956,-5.5274 -0.61133,-15.9814 -0.61133,-28.6055 v -23.0742 c 0,-19.8442 6.8e-4,-23.5175 0.28906,-27.6445 0.32126,-4.6377 1.40811,-6.4902 5.08203,-7.0957 1.56514,-0.3171 2.6369,-0.4785 3.9961,-0.4785 1.40451,0 2.16992,-0.2874 2.16992,-1.5313 0,-0.766 -1.08648,-1.0879 -2.7793,-1.0879 -5.22259,0 -13.99502,0.3204 -17.38476,0.3204 -3.8346,0 -13.06954,-0.3204 -18.11914,-0.3204 z m 48.61328,0 c -2.01819,0 -2.97266,0.3214 -2.97266,1.2481 0,0.9267 0.79768,1.3711 2.33399,1.3711 1.85344,0 4.1529,0.1572 5.24023,0.4785 4.31237,1.2192 5.56028,2.4621 5.83203,7.0957 0.32126,4.1229 0.17578,7.7962 0.17578,27.6445 v 19.2364 c 0,18.9545 5.36674,28.604 12.30274,34.6132 9.82737,8.6288 23.84453,8.918 30.9082,8.918 8.78944,0 19.07875,-1.3729 28.60547,-9.3633 11.38016,-9.3949 12.91211,-24.7703 12.91211,-39.4043 v -14 c 0,-19.8442 0.15968,-23.5175 0.32031,-27.6445 0.32126,-4.6377 1.23147,-6.4902 4.92188,-7.0957 1.72165,-0.3171 2.4932,-0.4785 4.02539,-0.4785 1.50334,0 2.26757,-0.4444 2.26757,-1.3711 0,-0.9267 -0.89375,-1.2481 -2.76367,-1.2481 -5.22671,0 -14.28731,0.3204 -15.83594,0.3204 -0.1771,0 -9.2211,-0.3204 -16.14062,-0.3204 -1.85344,0 -2.74805,0.3214 -2.74805,1.2481 0,0.9267 0.73323,1.3711 2.26953,1.3711 1.56923,0 3.86775,0.1572 4.95508,0.4785 4.30001,1.2192 5.35358,2.6227 5.65821,7.0957 0.16063,4.1229 0.31835,7.7962 0.31835,27.6445 v 16.459 c 0,13.3901 -0.32183,24.7996 -7.86328,31.8633 -5.33794,5.2102 -12.27356,6.9355 -18.13867,6.9355 -4.58831,0 -11.07558,-0.4769 -17.06836,-5.2382 -6.63122,-5.2103 -10.33789,-12.6248 -10.33789,-31.7071 v -18.3125 c 0,-19.8442 -2.4e-4,-23.5175 0.38281,-27.6445 0.25535,-4.6377 1.34242,-6.4902 4.88868,-7.0957 1.69281,-0.3171 2.43095,-0.4785 3.99609,-0.4785 1.35919,0 2.14062,-0.4444 2.14062,-1.3711 0,-0.9267 -0.89413,-1.2481 -2.9082,-1.2481 -4.9384,0 -13.99804,0.3204 -17.36719,0.3204 -3.99518,0 -13.0862,-0.3204 -20.31054,-0.3204 z m 113.52539,0 c -2.01407,0 -3.10156,0.3214 -3.10156,1.2481 0,0.9267 0.94354,1.3711 2.30273,1.3711 2.01407,0 4.31302,0.1572 5.40039,0.4785 4.31649,1.2192 5.54681,2.6227 5.84766,7.0957 0.144,4.1229 0.14453,7.7962 0.14453,27.6445 h -0.004 v 23.0742 c 0,11.9898 8.7e-4,22.3437 -0.62109,27.8711 -0.46129,3.8346 -1.19511,6.2989 -3.96289,6.9043 -1.248,0.3212 -2.78085,0.4493 -4.79492,0.4493 -1.69282,0 -2.14063,0.7988 -2.14063,1.4043 0,0.9308 0.93023,1.375 2.62305,1.375 2.7431,0 6.13221,-0.1887 9.36133,-0.3164 3.22911,-1e-4 6.13716,-0.129 7.71875,-0.129 3.3403,0 8.29561,0.2549 13.69531,0.7657 5.33794,0.2883 11.2204,0.7675 16.10937,0.7675 24.9309,0 39.26428,-9.2343 45.38477,-15.4042 7.71855,-7.5085 14.79883,-19.977 14.79883,-36.4356 0,-15.5319 -6.02627,-26.4629 -12.78516,-33.2383 -14.76578,-14.9264 -37.53498,-14.9258 -54.45898,-14.9258 -8.15105,0 -17.82121,0.3204 -22.00586,0.3204 -3.81812,0 -12.44805,-0.3204 -19.51172,-0.3204 z m 808.6289,0.3536 c -1.977,0 -2.85351,0.2525 -2.85351,1.1875 0,0.9349 0.75807,1.1816 2.19141,1.1816 1.81225,0 4.03607,0.11 5.07812,0.3613 4.25057,0.9309 5.30928,3.0124 5.56055,7.3907 0.2677,4.197 0.26757,7.7826 0.26757,27.5527 v 22.8555 c 0,11.9856 -9e-4,22.2088 -0.62695,27.6992 -0.53956,3.7316 -1.22222,6.603 -3.80469,7.1054 -1.14913,0.2882 -2.75923,0.502 -4.6621,0.502 -1.57749,0 -2.08008,0.3944 -2.08008,1.041 0,0.9308 0.93346,1.3281 2.60156,1.3281 5.18552,0 13.36646,-0.3965 15.87891,-0.3965 1.90286,0 11.50304,0.3965 19.05273,0.3965 1.68458,0 2.58203,-0.3973 2.58203,-1.3281 0,-0.6466 -0.53799,-1.041 -1.54297,-1.041 -1.57749,0 -4.43332,-0.2136 -6.36914,-0.502 -3.93342,-0.5024 -4.68272,-3.3738 -5.07812,-7.1054 -0.64665,-5.4904 -0.64649,-15.714 -0.64649,-27.8438 v -1.791 c 0,-0.7537 0.39633,-1.041 1.04297,-1.041 l 11.30078,0.2871 c 6.74654,0.3213 10.83787,8.8261 16.17578,18.3281 7.42612,13.2377 26.01364,35.1997 52.81446,27.127 20.30551,-6.1699 32.75639,-20.5614 32.2539,-21.5293 -0.49837,-1.005 -2.1875,0.791 -2.1875,0.791 0,0 -35.48396,27.5212 -57.37109,2.6562 -14.78222,-16.7551 -16.79079,-24.4357 -21.14844,-28.5957 -3.96223,-3.8428 -6.76367,-4.164 -6.76367,-4.164 13.09767,-10.6182 17.13477,-19.4822 17.13477,-29.0625 0,-8.7194 -5.21898,-15.3547 -8.81055,-17.8301 -7.04719,-4.7695 -15.73335,-5.5605 -23.92969,-5.5605 -3.98285,0 -13.85251,0.3964 -18.30078,0.3964 -2.72662,0 -10.90614,-0.3964 -17.75977,-0.3964 z m 33.60938,6.1035 c 7.67738,0 19.89453,5.3433 19.89453,23.7871 0,10.6552 -3.80283,16.6116 -7.66211,19.4824 -2.35181,1.6887 -4.05687,2.1895 -9.23828,2.1895 -3.26618,0 -7.1406,-0.358 -9.9043,-1.293 -0.89791,-0.3583 -1.15039,-0.8967 -1.15039,-2.3301 h 0.004 v -39.4668 c 0,-1.042 0.2525,-1.6136 1.15039,-1.832 1.33036,-0.3911 3.6236,-0.5371 6.90625,-0.5371 z m -803.34375,0.3144 c 10.61408,0 25.39487,1.375 37.8418,12.4668 6.00926,5.2432 12.625,16.0092 12.625,32.5996 0,13.5178 -2.74767,25.2486 -11.53711,32.4688 -8.16752,6.7754 -17.24087,8.918 -29.53125,8.918 -10.58113,0 -16.01422,-2.7484 -17.70703,-5.2403 -1.0585,-1.3756 -1.37453,-5.9759 -1.53516,-9.2051 -0.13191,-2.6195 -0.28906,-12.6194 -0.28906,-26.4296 h 0.004 v -16.4922 c 0,-10.3258 -2.2e-4,-21.0954 0.15625,-25.5684 0,-1.5033 0.44906,-2.147 1.66407,-2.5918 1.08737,-0.6054 5.52844,-0.9258 8.30859,-0.9258 z m 212.75,0 c 10.62641,0 25.40444,1.375 37.85547,12.4668 5.97633,5.2432 12.60742,16.0092 12.60742,32.5996 0,13.5178 -2.74682,25.2486 -11.55273,32.4688 -8.11809,6.7754 -17.20876,8.918 -29.51563,8.918 -10.62641,0 -15.99664,-2.7484 -17.68945,-5.2403 -1.05853,-1.3756 -1.39321,-5.9759 -1.57031,-9.2051 -0.14416,-2.6195 -0.28711,-12.6194 -0.28711,-26.4296 h 0.004 v -16.4922 c 0,-10.3258 3.8e-4,-21.0954 0.14453,-25.5684 0,-1.5033 0.49395,-2.147 1.70899,-2.5918 1.08735,-0.6054 5.52711,-0.9258 8.29492,-0.9258 z m 411.39844,0.01 c 10.56463,0 25.33022,1.3634 37.78125,12.4141 5.98868,5.2391 12.59179,16.0021 12.59179,32.6172 0,13.489 -2.77972,25.1845 -11.51562,32.3965 -8.14692,6.7795 -17.26145,8.9336 -29.53125,8.9336 -10.58523,0 -15.96972,-2.7959 -17.6543,-5.2383 -1.075,-1.3963 -1.36281,-5.9877 -1.52344,-9.2168 -0.16475,-2.6236 -0.34179,-12.6 -0.34179,-26.4473 h 0.004 v -16.4297 c 0,-10.3339 6.3e-4,-21.0264 0.17774,-25.5117 0,-1.5404 0.43127,-2.1537 1.6875,-2.582 1.11618,-0.6096 5.52758,-0.9356 8.32422,-0.9356 z m -97.308597,16.7559 c 0.288314,0 0.501447,0.7533 0.625,1.2187 l 12.740235,33.1895 c 0.160633,0.4695 -0.0018,0.7891 -0.611329,0.7891 H 64.402344 c -0.469542,0 -0.754886,-0.3241 -0.470703,-0.9336 l 13.060547,-33.045 c 0.148274,-0.4612 0.310822,-1.2187 0.759765,-1.2187 z m -411.445313,0.02 c 0.28419,0 0.46242,0.7659 0.62305,1.2149 l 12.73437,33.2383 c 0.14416,0.4448 -6.5e-4,0.7675 -0.59375,0.7675 h -26.15429 c -0.44895,0 -0.78089,-0.3181 -0.44727,-0.9277 l 13.05664,-33.0781 c 0.16063,-0.449 0.31583,-1.2149 0.78125,-1.2149 z m 781.37891,0.5899 c 0.33781,0 0.46537,0.6459 0.60937,1.1484 l 11.67774,32.0762 c 0.16063,0.3913 1.8e-4,0.8242 -0.60938,0.8242 v 0 h -23.91406 c -0.55605,0 -0.66776,-0.4311 -0.55664,-0.9336 l 11.94922,-31.9707 c 0.17711,-0.5025 0.39478,-1.1484 0.84375,-1.1484 z"
         transform="scale(0.26458333)" />
      <path
         class="st0"
         d="m 54.555673,449.73391 h -0.06539 l -4.178126,-6.12661 v 9.27273 H 49.050223 V 441.41144 H 50.3612 l 4.178126,6.25847 4.178127,-6.25847 h 1.309887 v 11.4675 h -1.294631 v -9.28908 z m -8.567666,-1.75233 c 0,0.84129 -0.114424,1.57797 -0.344363,2.21111 -0.228849,0.63315 -0.554686,1.16277 -0.974242,1.58887 -0.420646,0.42609 -0.923024,0.74539 -1.507133,0.9579 -0.58411,0.21359 -1.236874,0.31929 -1.958293,0.31929 -0.709431,0 -1.356747,-0.1057 -1.940856,-0.31929 -0.58411,-0.21251 -1.087577,-0.52963 -1.507133,-0.95027 -0.420646,-0.42065 -0.745394,-0.94155 -0.974243,-1.56489 -0.229938,-0.62334 -0.344363,-1.33822 -0.344363,-2.14682 v -6.66713 h 1.294631 v 6.58539 c 0,1.24451 0.308401,2.20131 0.925203,2.86715 0.616802,0.66694 1.47662,0.99931 2.580544,0.99931 1.059243,0 1.900535,-0.31712 2.522786,-0.95027 0.623341,-0.63315 0.933921,-1.57796 0.933921,-2.83445 v -6.66713 h 1.294631 v 6.57123 z m -12.729446,4.89736 h -1.29463 v -11.4675 h 1.29463 z m -10.124927,-3.14503 h -0.06539 l -4.178126,-6.12661 v 9.27273 H 17.62818 v -11.46859 h 1.310977 l 4.178127,6.25847 4.178126,-6.25847 h 1.310977 v 11.4675 H 27.31176 v -9.28908 z m -8.1917,-7.14336 H 7.9467873 v 3.9155 h 6.2584717 v 1.1802 H 7.9467873 v 4.01358 h 7.0779687 v 1.17911 H 6.6532463 v -11.4675 h 8.2897777 v 1.17911 z m -13.1239373,0.6168 C 1.3036316,442.80741 0.58112308,442.6069 -0.35061872,442.6069 H -3.8977761 v 4.66961 h 3.53081103 c 0.42718455,0 0.82058664,-0.0545 1.1823858,-0.16456 0.36179917,-0.11006 0.67346947,-0.2659 0.93610087,-0.46859 0.2626313,-0.2027 0.4675055,-0.45225 0.6157124,-0.74758 0.1471171,-0.29532 0.2212206,-0.62988 0.2212206,-1.00257 0.00109,-0.72469 -0.2560928,-1.28591 -0.7704579,-1.68586 m 0.885972,9.67159 -3.32593679,-4.45601 H -3.8977761 v 4.45601 h -1.2946308 v -11.4675 h 4.93114821 c 0.63314853,0 1.20418093,0.0828 1.71200749,0.24628 0.5078265,0.16346 0.9415496,0.39558 1.302259,0.69636 0.3607094,0.30077 0.6385973,0.66148 0.8358432,1.08212 0.1961562,0.42065 0.2942343,0.88816 0.2942343,1.40143 0,0.48058 -0.076283,0.90886 -0.2299386,1.28591 -0.152566,0.37706 -0.3683377,0.70508 -0.6473154,0.98296 -0.2789777,0.27898 -0.6091739,0.5111 -0.9916784,0.69745 -0.3825046,0.18526 -0.7977018,0.31712 -1.2455917,0.3934 l 3.522093,4.68159 z m -12.3948904,-9.64107 c -0.5644943,-0.42065 -1.3120673,-0.63097 -2.2427193,-0.63097 h -2.90747 v 5.04557 h 2.842085 c 0.470775,0 0.900139,-0.0599 1.289182,-0.17981 0.387953,-0.11987 0.7225085,-0.29205 1.0014862,-0.51654 0.2789777,-0.2234 0.4925699,-0.49148 0.6407768,-0.80315 0.1482069,-0.31167 0.2223104,-0.65822 0.2223104,-1.04072 0,-0.82822 -0.282247,-1.45374 -0.8456511,-1.87438 m 1.7795724,3.46542 c -0.2408362,0.46969 -0.5644939,0.86309 -0.9742423,1.18021 -0.4097485,0.31712 -0.8881516,0.55469 -1.4330294,0.7127 -0.547058,0.15802 -1.124629,0.23757 -1.737072,0.23757 h -2.785418 v 4.04626 h -1.294631 v -11.46859 h 4.292551 c 0.644046,0 1.231425,0.085 1.761047,0.25391 0.5296214,0.17 0.9829601,0.40975 1.3600158,0.72033 0.3770558,0.31058 0.6658413,0.69417 0.868536,1.14751 0.2016049,0.45334 0.3029523,0.96444 0.3029523,1.5322 0,0.62225 -0.120963,1.16822 -0.3607094,1.6379"
         id="path852"
         style="fill:#b4a269;fill-opacity:1;stroke-width:0.108976" />
      <path
         class="st0"
         d="m -23.801089,451.00347 c -0.205964,0.44244 -0.49366,0.81405 -0.861997,1.11373 -0.369428,0.30078 -0.809689,0.52963 -1.320785,0.68873 -0.512186,0.15801 -1.078859,0.23757 -1.70111,0.23757 -0.873985,0 -1.731623,-0.15039 -2.571825,-0.45007 -0.841292,-0.29969 -1.605212,-0.76174 -2.293938,-1.38399 l 1.490787,-1.78611 c 0.524173,0.42609 1.062513,0.76501 1.613929,1.01565 0.551417,0.25064 1.155142,0.37705 1.810086,0.37705 0.524173,0 0.931742,-0.0948 1.220527,-0.2866 0.288786,-0.1918 0.434813,-0.45552 0.434813,-0.79443 v -0.0327 c 0,-0.16346 -0.03051,-0.3084 -0.09045,-0.43372 -0.05994,-0.12532 -0.17545,-0.24302 -0.345452,-0.35199 -0.170002,-0.10898 -0.40539,-0.21795 -0.706163,-0.32802 -0.300772,-0.10897 -0.691995,-0.2234 -1.173667,-0.34436 -0.580841,-0.14167 -1.106103,-0.30077 -1.576878,-0.47513 -0.470775,-0.17437 -0.870716,-0.39014 -1.198732,-0.64732 -0.329107,-0.25609 -0.58302,-0.57648 -0.76392,-0.95899 -0.180899,-0.3825 -0.271349,-0.85763 -0.271349,-1.4254 v -0.0327 c 0,-0.52417 0.09699,-0.99604 0.293145,-1.41668 0.195066,-0.42065 0.469685,-0.78354 0.821676,-1.08976 0.353081,-0.30513 0.773727,-0.54052 1.263028,-0.70398 0.4893,-0.16347 1.02982,-0.24629 1.619378,-0.24629 0.841292,0 1.613929,0.12641 2.317912,0.37706 0.705072,0.25173 1.351298,0.61244 1.941946,1.08104 l -1.310977,1.90053 c -0.513275,-0.34981 -1.015653,-0.62552 -1.507133,-0.82712 -0.49148,-0.20161 -0.982961,-0.30296 -1.474441,-0.30296 -0.49148,0 -0.859818,0.0959 -1.106103,0.28661 -0.245195,0.1918 -0.368337,0.42936 -0.368337,0.7127 v 0.0327 c 0,0.18526 0.03487,0.34655 0.106796,0.48277 0.07192,0.13622 0.199425,0.25936 0.385774,0.36833 0.186348,0.10898 0.441351,0.21251 0.763919,0.31167 0.323658,0.0981 0.731227,0.21251 1.223797,0.34437 0.57975,0.15256 1.097384,0.32474 1.551813,0.51654 0.454428,0.1918 0.838023,0.42065 1.149693,0.68764 0.31167,0.26808 0.547058,0.58193 0.706162,0.94155 0.159105,0.36071 0.238657,0.79225 0.238657,1.29463 v 0.0327 c -0.0011,0.56776 -0.103527,1.07232 -0.310581,1.51476 m -12.861306,-3.85774 c 0,-0.49148 -0.085,-0.95571 -0.253913,-1.3927 -0.170002,-0.437 -0.409749,-0.8195 -0.721419,-1.14643 -0.31167,-0.32801 -0.680008,-0.58738 -1.106103,-0.77808 -0.426095,-0.19071 -0.890331,-0.28661 -1.392709,-0.28661 -0.513275,0 -0.979691,0.0937 -1.400337,0.27898 -0.420646,0.18526 -0.781355,0.44244 -1.081038,0.77046 -0.300773,0.32801 -0.535071,0.70725 -0.705073,1.13879 -0.168912,0.43154 -0.253913,0.89251 -0.253913,1.38399 v 0.0327 c 0,0.49148 0.085,0.95572 0.253913,1.39271 0.168912,0.437 0.409749,0.8195 0.721419,1.14643 0.31167,0.32801 0.676739,0.58738 1.097385,0.77808 0.420646,0.1918 0.887062,0.28661 1.400337,0.28661 0.502378,0 0.966614,-0.0926 1.392709,-0.27898 0.426095,-0.18526 0.788983,-0.44244 1.088666,-0.77046 0.299684,-0.32801 0.535071,-0.70725 0.705073,-1.13879 0.168912,-0.43155 0.253913,-0.89251 0.253913,-1.38399 v -0.0327 z m 2.178423,2.30157 c -0.306221,0.71488 -0.729047,1.34367 -1.269566,1.88419 -0.540519,0.54052 -1.185655,0.96661 -1.933228,1.27719 -0.748663,0.31167 -1.564891,0.46751 -2.449773,0.46751 -0.884882,0 -1.69784,-0.15584 -2.441054,-0.46751 -0.743214,-0.31167 -1.383991,-0.73122 -1.92451,-1.26193 -0.54052,-0.52963 -0.961166,-1.15188 -1.261938,-1.86785 -0.300773,-0.71488 -0.45007,-1.48316 -0.45007,-2.30156 v -0.0327 c 0,-0.8195 0.152566,-1.5856 0.458788,-2.30157 0.305132,-0.71488 0.729047,-1.34367 1.269566,-1.88419 0.540519,-0.54052 1.185655,-0.96661 1.933228,-1.27719 0.747573,-0.31167 1.56489,-0.46751 2.449773,-0.46751 0.884882,0 1.69784,0.15584 2.441054,0.46751 0.742124,0.31167 1.383991,0.73231 1.92451,1.26193 0.540519,0.52963 0.961165,1.15188 1.261938,1.86785 0.299683,0.71488 0.45007,1.48316 0.45007,2.30156 v 0.0327 c 0,0.81841 -0.153656,1.58669 -0.458788,2.30157 m -16.120768,3.43164 -5.553399,-7.29047 v 7.29047 h -2.490093 v -11.4675 h 2.32663 l 5.373589,7.06053 v -7.06053 h 2.490094 v 11.4675 z m -19.02061,0 v -11.4675 h 8.633051 v 2.24489 h -6.144047 v 2.32663 h 5.406282 v 2.2449 h -5.406282 v 2.40836 h 6.225779 v 2.2449 h -8.714783 z m -4.83198,-7.55201 c 0,-0.54597 -0.175451,-0.95572 -0.524173,-1.22924 -0.349812,-0.27353 -0.835843,-0.40975 -1.458094,-0.40975 h -2.50644 v 3.29324 h 2.555479 c 0.622251,0 1.100654,-0.14712 1.43303,-0.44244 0.332376,-0.29532 0.500198,-0.68873 0.500198,-1.18021 z m -0.05013,7.55201 -2.457401,-3.66921 h -1.982267 v 3.66921 h -2.522786 v -11.4675 h 5.242818 c 1.365465,0 2.427978,0.33346 3.186448,0.9993 0.759561,0.66584 1.138796,1.59432 1.138796,2.78542 v 0.0327 c 0,0.92848 -0.226669,1.68477 -0.680008,2.26888 -0.453339,0.58411 -1.046166,1.01347 -1.777393,1.28591 l 2.800674,4.0953 z m -11.795524,-7.55201 c 0,-0.54597 -0.174361,-0.95572 -0.524173,-1.22924 -0.349812,-0.27353 -0.835843,-0.40975 -1.458094,-0.40975 h -2.50644 v 3.29324 h 2.555479 c 0.622251,0 1.100654,-0.14712 1.43303,-0.44244 0.333465,-0.29532 0.500198,-0.68873 0.500198,-1.18021 z m -0.04904,7.55201 -2.457401,-3.66921 h -1.982267 v 3.66921 h -2.522786 v -11.4675 h 5.242818 c 1.365465,0 2.427978,0.33346 3.186448,0.9993 0.75956,0.66584 1.138796,1.59432 1.138796,2.78542 v 0.0327 c 0,0.92848 -0.22667,1.68477 -0.680008,2.26888 -0.453339,0.58411 -1.046167,1.01347 -1.777393,1.28591 l 2.800674,4.0953 z m -17.938476,0 v -11.4675 h 8.634135 v 2.24489 h -6.144045 v 2.32663 h 5.40628 v 2.2449 h -5.40628 v 2.40836 h 6.225777 v 2.2449 h -8.715867 z m -5.42263,-9.14087 v 9.14196 h -2.52279 v -9.14196 h -3.4894 v -2.32663 h 9.50159 v 2.32663 z"
         id="path854"
         style="fill:#014e82;fill-opacity:0.866667;stroke-width:0.108976" />
    </g>
  </g>
  <style
     type="text/css"
     id="style824">
	.st0{fill:#FFFFFF;}
</style>
</svg>
